<?xml version="1.0" encoding="utf-8"?>
<!-- Generator: Adobe Illustrator 18.0.0, SVG Export Plug-In . SVG Version: 6.00 Build 0)  -->
<!DOCTYPE svg PUBLIC "-//W3C//DTD SVG 1.1//EN" "http://www.w3.org/Graphics/SVG/1.1/DTD/svg11.dtd">
<svg version="1.1" xmlns="http://www.w3.org/2000/svg" xmlns:xlink="http://www.w3.org/1999/xlink" x="0px" y="0px"
	 viewBox="0 0 110 110" enable-background="new 0 0 110 110" xml:space="preserve">
<g id="Capa_1">
	<circle fill="none" cx="55.3" cy="55" r="55"/>
</g>
<g id="iconos">
	<g>
		<path d="M16.7,37.6H30c0.7,0,1.3-0.6,1.3-1.3c0-0.7-0.6-1.3-1.3-1.3H16.7c-0.7,0-1.3,0.6-1.3,1.3C15.4,37,16,37.6,16.7,37.6
			L16.7,37.6z M16.7,37.6L16.7,37.6z"/>
		<path d="M29.6,43.7h-5.3c-0.7,0-1.3,0.6-1.3,1.3c0,0.7,0.6,1.3,1.3,1.3h5.3c0.7,0,1.3-0.6,1.3-1.3C30.8,44.3,30.3,43.7,29.6,43.7
			L29.6,43.7z M29.6,43.7L29.6,43.7z"/>
		<path d="M11.4,52.5h12.9c0.7,0,1.3-0.6,1.3-1.3c0-0.7-0.6-1.3-1.3-1.3H11.4c-0.7,0-1.3,0.6-1.3,1.3C10.1,51.9,10.7,52.5,11.4,52.5
			L11.4,52.5z M11.4,52.5L11.4,52.5z"/>
		<path d="M31.3,74.9c0-0.7-0.6-1.3-1.3-1.3H16.7c-0.7,0-1.3,0.6-1.3,1.3c0,0.7,0.6,1.3,1.3,1.3H30C30.7,76.1,31.3,75.6,31.3,74.9
			L31.3,74.9z M31.3,74.9L31.3,74.9z"/>
		<path d="M29.6,65h-5.3c-0.7,0-1.3,0.6-1.3,1.3c0,0.7,0.6,1.3,1.3,1.3h5.3c0.7,0,1.3-0.6,1.3-1.3C30.8,65.6,30.3,65,29.6,65
			L29.6,65z M29.6,65L29.6,65z"/>
		<path d="M25.6,60c0-0.7-0.6-1.3-1.3-1.3H11.4c-0.7,0-1.3,0.6-1.3,1.3c0,0.7,0.6,1.3,1.3,1.3h12.9C25,61.3,25.6,60.7,25.6,60
			L25.6,60z M25.6,60L25.6,60z"/>
		<path d="M64,40.4c0.7,0,1.3-0.6,1.3-1.3v-1.9c0-0.7-0.6-1.3-1.3-1.3c-0.7,0-1.3,0.6-1.3,1.3v1.9C62.7,39.8,63.3,40.4,64,40.4
			L64,40.4z M64,40.4L64,40.4z"/>
		<path d="M77.9,41.7c-0.5-0.5-1.3-0.5-1.8,0l-1.4,1.4c-0.5,0.5-0.5,1.3,0,1.8c0.5,0.5,1.3,0.5,1.8,0l1.4-1.4
			C78.4,43,78.4,42.2,77.9,41.7L77.9,41.7z M77.9,41.7L77.9,41.7z"/>
		<path d="M80.5,54.3c-0.7,0-1.3,0.6-1.3,1.3c0,0.7,0.6,1.3,1.3,1.3h1.9c0.7,0,1.3-0.6,1.3-1.3c0-0.7-0.6-1.3-1.3-1.3H80.5z
			 M80.5,54.3L80.5,54.3z"/>
		<path d="M76.5,66.4c-0.5-0.5-1.3-0.5-1.8,0c-0.5,0.5-0.5,1.3,0,1.8l1.4,1.4c0.5,0.5,1.3,0.5,1.8,0c0.5-0.5,0.5-1.3,0-1.8
			L76.5,66.4z M76.5,66.4L76.5,66.4z"/>
		<path d="M62.7,72.1V74c0,0.7,0.6,1.3,1.3,1.3c0.7,0,1.3-0.6,1.3-1.3v-1.9c0-0.7-0.6-1.3-1.3-1.3C63.3,70.8,62.7,71.4,62.7,72.1
			L62.7,72.1z M62.7,72.1L62.7,72.1z"/>
		<path d="M51.5,66.4l-1.4,1.4c-0.5,0.5-0.5,1.3,0,1.8c0.5,0.5,1.3,0.5,1.8,0l1.4-1.4c0.5-0.5,0.5-1.3,0-1.8
			C52.8,65.9,52,65.9,51.5,66.4L51.5,66.4z M51.5,66.4L51.5,66.4z"/>
		<path d="M45.6,54.3c-0.7,0-1.3,0.6-1.3,1.3c0,0.7,0.6,1.3,1.3,1.3h1.9c0.7,0,1.3-0.6,1.3-1.3c0-0.7-0.6-1.3-1.3-1.3H45.6z
			 M45.6,54.3L45.6,54.3z"/>
		<path d="M53.3,43.1l-1.4-1.4c-0.5-0.5-1.3-0.5-1.8,0c-0.5,0.5-0.5,1.3,0,1.8l1.4,1.4c0.5,0.5,1.3,0.5,1.8,0
			C53.8,44.4,53.8,43.6,53.3,43.1L53.3,43.1z M53.3,43.1L53.3,43.1z"/>
		<path d="M70.8,55.6c0-0.7-0.6-1.3-1.3-1.3h-4.3V45c0-0.7-0.6-1.3-1.3-1.3c-0.7,0-1.3,0.6-1.3,1.3v10.7c0,0.7,0.6,1.3,1.3,1.3h5.5
			C70.2,56.9,70.8,56.3,70.8,55.6L70.8,55.6z M70.8,55.6L70.8,55.6z"/>
		<path d="M88,55.4c0.7,0,1.2-0.6,1.2-1.3C88.4,40.8,77.3,30.4,64,30.4c-13.9,0-25.2,11.3-25.2,25.2S50.1,80.8,64,80.8
			c12.5,0,23.1-9.1,24.9-21.4c0.1-0.7-0.4-1.3-1.1-1.4c-0.7-0.1-1.3,0.4-1.4,1.1C84.8,70.1,75.2,78.3,64,78.3
			c-12.5,0-22.7-10.2-22.7-22.7c0-12.5,10.2-22.7,22.7-22.7c12,0,21.9,9.3,22.6,21.3C86.7,54.9,87.3,55.4,88,55.4L88,55.4z M88,55.4
			L88,55.4z"/>
		<path d="M64,23.2c-4.4,0-8.8,0.9-12.8,2.6H28.9c-0.7,0-1.3,0.6-1.3,1.3c0,0.7,0.6,1.3,1.3,1.3h17.6c-2.4,1.5-4.6,3.4-6.5,5.5
			c-0.5,0.5-0.4,1.3,0.1,1.8c0.5,0.5,1.3,0.4,1.8-0.1c5.7-6.3,13.7-9.8,22.2-9.8c16.5,0,29.9,13.4,29.9,29.9S80.5,85.5,64,85.5
			c-16.5,0-29.9-13.4-29.9-29.9c0-5.8,1.6-11.4,4.8-16.2c0.4-0.6,0.2-1.4-0.4-1.7c-0.6-0.4-1.4-0.2-1.7,0.4
			c-3.4,5.2-5.2,11.3-5.2,17.6c0,11.4,5.9,21.5,14.9,27.3H28.9c-0.7,0-1.3,0.6-1.3,1.3c0,0.7,0.6,1.3,1.3,1.3h22.3
			c3.9,1.7,8.3,2.6,12.8,2.6c17.9,0,32.4-14.6,32.4-32.4S81.9,23.2,64,23.2L64,23.2z M64,23.2L64,23.2z"/>
	</g>
</g>
</svg>
