<?xml version="1.0" encoding="utf-8"?>
<!-- Generator: Adobe Illustrator 18.0.0, SVG Export Plug-In . SVG Version: 6.00 Build 0)  -->
<!DOCTYPE svg PUBLIC "-//W3C//DTD SVG 1.1//EN" "http://www.w3.org/Graphics/SVG/1.1/DTD/svg11.dtd">
<svg version="1.1" xmlns="http://www.w3.org/2000/svg" xmlns:xlink="http://www.w3.org/1999/xlink" x="0px" y="0px"
	 viewBox="0 0 110 110" enable-background="new 0 0 110 110" xml:space="preserve">
<g id="Capa_1">
	<circle fill="none" cx="54.7" cy="55" r="55"/>
</g>
<g id="iconos">
	<path d="M55.9,68.5c5,0,9.9-1.9,13.6-5.3c0,0,0,0,0,0l0,0c5.8-5.4,7.9-13.8,5.2-21.3c0,0,0,0,0-0.1l0,0
		c-2.1-5.7-6.7-10.2-12.5-12.2c-0.8-1.3-2-2.3-3.4-2.9c-0.4-0.2-0.8-0.1-1.2,0.1c-0.4,0.2-0.6,0.6-0.6,1V33l-1.3,1.3L54.6,33v-5.2
		c0-0.4-0.2-0.8-0.6-1c-0.4-0.2-0.8-0.3-1.2-0.1c-1.4,0.6-2.6,1.6-3.4,2.9c-9.3,3.1-14.9,12.5-13.4,22.2
		C37.7,61.4,46.1,68.5,55.9,68.5L55.9,68.5z M49,58.5c-0.8,0-0.8-1.3,0-1.3h1.9c0.7,0,1.3-0.6,1.3-1.3c0-0.7-0.6-1.3-1.3-1.3H49
		c-0.8,0-0.8-1.3,0-1.3h1.9c0.7,0,1.3-0.6,1.3-1.3c0-0.7-0.6-1.3-1.3-1.3H49c-0.8,0-0.8-1.3,0-1.3h1.9c0.7,0,1.3-0.6,1.3-1.3
		c0-0.7-0.6-1.3-1.3-1.3H49c-0.8,0-0.8-1.3,0-1.3h16.9v12.5H49z M58.1,61c-0.4,0.8-1.3,1.2-2.2,1.2c-0.9,0-1.7-0.5-2.2-1.2H58.1z
		 M60.9,42.3h0.6l0.8,1.3h-1.4V42.3z M68.4,60.7V43.5h4.3C74.5,49.6,72.9,56.2,68.4,60.7L68.4,60.7z M71.7,41h-4.5
		c-0.7,0-1.3,0.6-1.3,1.3v1.3h-0.6l-2.1-3.2c-0.2-0.3-0.6-0.6-1-0.6h-1.3v-0.7c1.6-1.4,2.5-3.5,2.5-5.6c0-0.3,0-0.5-0.1-0.8
		C67,34.4,70,37.4,71.7,41L71.7,41z M52.5,34.4l2.5,2.5c0.5,0.5,1.3,0.5,1.8,0l2.5-2.5c0.2-0.2,0.4-0.6,0.4-0.9v-3.3
		c0.9,1,1.4,2.4,1.2,3.8c-0.1,1.4-0.9,2.7-2,3.5c-0.3,0.2-0.5,0.6-0.5,1v5h-5v-5c0-0.4-0.2-0.8-0.5-1c-1.1-0.8-1.8-2.1-2-3.5
		c-0.1-1.4,0.3-2.8,1.2-3.8v3.3C52.1,33.8,52.3,34.2,52.5,34.4L52.5,34.4z M48.4,32.7c0,0.3-0.1,0.5-0.1,0.8c0,2.1,0.9,4.2,2.5,5.6
		v4.4H49c-1.7,0-3.1,1.4-3.1,3.1c0,0.7,0.2,1.3,0.6,1.9c-0.9,1.1-0.9,2.6,0,3.8c-0.9,1.1-0.9,2.6,0,3.8c-0.4,0.5-0.6,1.2-0.6,1.9
		c0,1.7,1.4,3.1,3.1,3.1h2.1c0.6,2.2,2.5,3.8,4.8,3.8s4.3-1.5,4.8-3.8h5.2v1.3c0,0.2,0,0.3,0.1,0.5c-2.9,2.1-6.5,3.3-10.1,3.3
		c-8.2,0-15.3-5.7-17.1-13.7C37,44.3,41,36.2,48.4,32.7L48.4,32.7z M48.4,32.7"/>
	<path d="M25.9,53.8h4.5c0.6,2.6,1.7,5.1,3.1,7.4l-3.2,3.2c-0.2,0.2-0.4,0.6-0.4,0.9c0,0.3,0.1,0.7,0.4,0.9l7.1,7.1
		c0.2,0.2,0.6,0.4,0.9,0.4c0.3,0,0.7-0.1,0.9-0.4l3.2-3.2c2.3,1.4,4.8,2.4,7.4,3.1v4.5c0,0.7,0.6,1.3,1.3,1.3h10
		c0.7,0,1.3-0.6,1.3-1.3V73c2.6-0.6,5.1-1.7,7.4-3.1l3.2,3.2c0.2,0.2,0.6,0.4,0.9,0.4c0.3,0,0.6-0.1,0.9-0.4l7.1-7.1
		c0.2-0.2,0.4-0.6,0.4-0.9c0-0.3-0.1-0.7-0.4-0.9l-3.2-3.2c1.4-2.3,2.4-4.8,3.1-7.4h4.5c0.7,0,1.3-0.6,1.3-1.3v-10
		c0-0.7-0.6-1.3-1.3-1.3h-4.5c-0.6-2.6-1.7-5.1-3.1-7.4l3.2-3.2c0.2-0.2,0.4-0.6,0.4-0.9c0-0.3-0.1-0.7-0.4-0.9l-7.1-7.1
		c-0.2-0.2-0.6-0.4-0.9-0.4c-0.3,0-0.6,0.1-0.9,0.4l-3.2,3.2c-2.3-1.4-4.8-2.4-7.4-3.1v-4.5c0-0.7-0.6-1.3-1.3-1.3h-10
		c-0.7,0-1.3,0.6-1.3,1.3V22c-2.6,0.6-5.1,1.7-7.4,3.1l-3.2-3.2c-0.2-0.2-0.6-0.4-0.9-0.4c-0.3,0-0.6,0.1-0.9,0.4l-7.1,7.1
		c-0.2,0.2-0.4,0.6-0.4,0.9c0,0.3,0.1,0.6,0.4,0.9l3.2,3.2c-1.4,2.3-2.4,4.8-3.1,7.4h-4.5c-0.7,0-1.3,0.6-1.3,1.3v10
		C24.6,53.2,25.2,53.8,25.9,53.8L25.9,53.8z M27.1,43.8h4.3c0.6,0,1.1-0.4,1.2-1c0.6-3,1.8-5.8,3.5-8.4c0.3-0.5,0.3-1.2-0.2-1.6
		l-3-3l5.3-5.3l3,3c0.4,0.4,1.1,0.5,1.6,0.2c2.5-1.7,5.4-2.9,8.4-3.5c0.6-0.1,1-0.6,1-1.2v-4.3h7.5V23c0,0.6,0.4,1.1,1,1.2
		c3,0.6,5.8,1.8,8.4,3.5c0.5,0.3,1.2,0.3,1.6-0.2l3-3l5.3,5.3l-3,3c-0.4,0.4-0.5,1.1-0.2,1.6c1.7,2.5,2.9,5.4,3.5,8.4
		c0.1,0.6,0.6,1,1.2,1h4.3v7.5h-4.3c-0.6,0-1.1,0.4-1.2,1c-0.6,3-1.8,5.8-3.5,8.4c-0.3,0.5-0.3,1.2,0.2,1.6l3,3l-5.3,5.3l-3-3
		c-0.4-0.4-1.1-0.5-1.6-0.2c-2.5,1.7-5.4,2.9-8.4,3.5c-0.6,0.1-1,0.6-1,1.2v4.3h-7.5V72c0-0.6-0.4-1.1-1-1.2c-3-0.6-5.8-1.8-8.4-3.5
		c-0.5-0.3-1.2-0.3-1.6,0.2l-3,3l-5.3-5.3l3-3c0.4-0.4,0.5-1.1,0.2-1.6c-1.7-2.5-2.9-5.4-3.5-8.4c-0.1-0.6-0.6-1-1.2-1h-4.3V43.8z
		 M27.1,43.8"/>
	<g>
		<path d="M92.6,83.3l-7.5-2.5c-0.3-0.1-0.5-0.1-0.8,0L80.7,82H48.4v-2.5c0-0.7-0.6-1.3-1.3-1.3H25.9c-4.1,0-7.5,3.4-7.5,7.5
			c0,4.1,3.4,7.5,7.5,7.5h21.3c0.7,0,1.3-0.6,1.3-1.3v-2.5h32.3l3.6,1.2c0.3,0.1,0.5,0.1,0.8,0l7.5-2.5c0.5-0.2,0.9-0.6,0.9-1.2
			v-2.5C93.4,84,93.1,83.5,92.6,83.3L92.6,83.3z M45.9,90.8h-20c-2.8,0-5-2.2-5-5c0-2.8,2.2-5,5-5h20V90.8z M90.9,86.1l-6.3,2.1
			l-3.4-1.1c-0.1,0-0.3-0.1-0.4-0.1H48.4v-2.5h32.5c0.1,0,0.3,0,0.4-0.1l3.4-1.1l6.3,2.1V86.1z M90.9,86.1"/>
		<path d="M42.1,87H24.6c-0.7,0-1.3-0.6-1.3-1.3c0-0.7,0.6-1.3,1.3-1.3h17.5c0.7,0,1.3,0.6,1.3,1.3C43.4,86.5,42.8,87,42.1,87
			L42.1,87z M42.1,87"/>
	</g>
</g>
</svg>
