<?xml version="1.0" encoding="utf-8"?>
<!-- Generator: Adobe Illustrator 18.0.0, SVG Export Plug-In . SVG Version: 6.00 Build 0)  -->
<!DOCTYPE svg PUBLIC "-//W3C//DTD SVG 1.1//EN" "http://www.w3.org/Graphics/SVG/1.1/DTD/svg11.dtd">
<svg version="1.1" xmlns="http://www.w3.org/2000/svg" xmlns:xlink="http://www.w3.org/1999/xlink" x="0px" y="0px"
	 viewBox="0 0 110 110" enable-background="new 0 0 110 110" xml:space="preserve">
<g id="Capa_1">
	<circle fill="none" cx="54.7" cy="55" r="55"/>
</g>
<g id="iconos">
	<g>
		<path d="M94.2,46.2c-3.9-4.7-8.4-3.9-12.8-3.2c-2.2,0.4-4.6,0.8-7,0.5c-0.3,0-0.6-0.1-1-0.1c1.2-1.7,2.1-3.5,2.7-5.4
			c0.2-0.7-0.1-1.4-0.8-1.6c-0.7-0.2-1.4,0.1-1.6,0.8c-0.6,2-1.6,3.8-3,5.6c-1.2-0.4-2.3-0.8-3.4-1.2c-4.3-1.7-8.4-3.3-14,1
			c-1.6-1.9-3.7-3.2-6-3.8c-7.1-1.9-10.3,1.3-13.6,4.7c-0.1,0.1-0.1,0.1-0.2,0.2c-3-4.5-3.4-9.6-0.9-13.2c3.3-4.7,6.5-4.5,10.9-4.2
			c0.1,2,0.7,3.6,1.9,4.7c1.4,1.3,3.4,1.6,5.3,1.5c0.7,0,1.3-0.1,2-0.2c3.4-0.6,5.6-1.9,6.6-3.8c0.8-1.4,0.8-3.2,0.2-5.1
			c3.7-1.8,6.5-2.9,10.2-0.4c3.1,2.1,4.9,5.7,4.9,9.8c0,0.7,0.6,1.3,1.3,1.3c0,0,0,0,0,0c0.7,0,1.3-0.6,1.3-1.3c0.1-5-2.1-9.4-6-12
			c-5.1-3.4-9.2-1.4-13.2,0.5c-2,1-4.2,2-6.6,2.4c-2.6,0.5-5,0.3-7.3,0.1c-4.7-0.4-9.2-0.8-13.4,5.2c-1.7,2.5-2.4,5.5-2,8.7
			c0.3,2.7,1.4,5.4,3.2,7.8c-1.1,1-2.2,1.9-3.6,2.7c-2.1,1.2-4.4,1.8-6.6,2.4c-4.3,1.1-8.7,2.2-10.4,8.1c-0.8,2.7-0.7,5.5,0.3,8.1
			c0.2,0.7,1,1,1.7,0.7c0.6-0.3,0.9-1,0.7-1.6c-0.8-2.1-0.8-4.4-0.2-6.6c1.2-4.3,4.1-5.2,8.1-6.2c0.8,1.9,1.9,3.2,3.4,3.8
			c0.7,0.3,1.4,0.4,2.1,0.4c1.6,0,3.4-0.6,5.4-1.8c2.8-1.7,4.4-3.6,4.7-5.7c0.2-1.6-0.3-3.2-1.6-4.8c3.1-3.1,5.4-5.3,11-3.8
			c2.9,0.8,5.3,2.9,6.7,6.1c1.9,4.5,1.6,10.2-0.9,15.1c-2,0.4-4,0.3-5.9,0.2c-4.4-0.1-9-0.2-12.2,4.9c-1.5,2.4-2.2,5.1-2,8
			c0,0,0,0,0,0C26,76.1,19.9,74,16.2,69.7c-0.5-0.5-1.3-0.6-1.8-0.1c-0.5,0.5-0.6,1.3-0.1,1.8c3.7,4.3,9.6,6.8,15.9,6.8
			c0.9,0,1.7,0,2.6-0.1c0.5,1.8,1.3,3.6,2.4,5.3c2.3,3.4,5.7,6,9.9,7.6c2.9,1.1,6.1,1.7,9.4,1.7c1.9,0,3.8-0.2,5.8-0.6
			c3.4-0.7,6.6-1.8,9.4-3.5c0.6-0.4,0.8-1.1,0.4-1.7c-0.4-0.6-1.1-0.8-1.7-0.4c-2.5,1.5-5.4,2.6-8.5,3.2c-4.9,0.9-9.7,0.6-13.8-1
			c-3.7-1.4-6.7-3.7-8.7-6.7c-2.9-4.3-3.2-9.2-0.8-13.1c2.4-3.8,5.4-3.9,9.5-3.7c0.2,2,1,3.6,2.3,4.6c1.1,0.8,2.5,1.3,4.1,1.3
			c1,0,2.2-0.2,3.5-0.5c3.2-0.8,5.2-2.2,6.1-4.2c0.6-1.5,0.6-3.2-0.2-5c3.8-2.1,6.6-3.6,11.6-0.6c2.6,1.6,4.3,4.4,4.7,7.9
			c0.6,5.2-1.7,10.9-5.9,15c-0.5,0.5-0.5,1.3,0,1.8c0.5,0.5,1.3,0.5,1.8,0c3.5-3.4,5.8-7.6,6.5-12c7.6-1.8,13.7-6.9,15.9-13.4
			C98.2,54.9,97.4,49.9,94.2,46.2L94.2,46.2z M51.9,26c2-0.4,3.8-1,5.4-1.8c0.3,0.9,0.3,1.9-0.1,2.8c-0.6,1.2-2.3,2.1-4.8,2.5
			c-2.4,0.4-4.2,0.2-5.1-0.7c-0.6-0.6-1-1.4-1-2.6C47.9,26.4,49.8,26.4,51.9,26L51.9,26z M34.9,49.4c-0.2,1.3-1.3,2.6-3.5,3.8
			c-2.2,1.3-4,1.7-5.3,1.2c-0.9-0.4-1.5-1.2-1.9-2.1c1.7-0.5,3.5-1.1,5.3-2.1c1.8-1,3.2-2.3,4.5-3.5C34.7,47.7,35,48.5,34.9,49.4
			L34.9,49.4z M79.9,45.8c0,1-0.2,2-0.9,2.7c-0.9,1-2.8,1.3-5.3,1c-2.5-0.3-4-1-4.7-2.1c-0.4-0.7-0.5-1.6-0.3-2.8
			c1.6,0.6,3.5,1.1,5.5,1.3C76.2,46.2,78.1,46.1,79.9,45.8L79.9,45.8z M59.6,65.3c-0.5,1.2-2,2.1-4.4,2.7c-2.5,0.6-4.3,0.5-5.4-0.3
			c-0.8-0.6-1.1-1.6-1.3-2.5c1.8,0,3.7-0.1,5.6-0.6c2-0.5,3.7-1.3,5.3-2.1C59.9,63.6,60,64.5,59.6,65.3L59.6,65.3z M94,59.1
			c-1.9,5.4-6.9,9.8-13.3,11.6c0-0.8,0-1.6-0.1-2.4c-0.5-4.4-2.6-7.8-6-9.8c-6.3-3.8-10.2-1.6-14.4,0.7c-1.4,0.8-2.9,1.6-4.6,2.3
			c2-5.1,2-10.6,0-15.2c-0.3-0.6-0.5-1.2-0.9-1.7c4.4-3.4,7.4-2.3,11.3-0.8c-0.5,2-0.3,3.6,0.5,5c1.1,1.8,3.3,2.9,6.6,3.3
			c0.7,0.1,1.3,0.1,1.9,0.1c2.5,0,4.3-0.6,5.6-1.9c1.1-1.2,1.7-2.8,1.6-4.8c4-0.7,7-1,9.9,2.4C94.8,50.8,95.5,54.9,94,59.1L94,59.1z
			 M94,59.1"/>
		<rect x="10.7" y="18.7" fill="none" width="86.6" height="74"/>
	</g>
</g>
</svg>
