<?xml version="1.0" encoding="utf-8"?>
<!-- Generator: Adobe Illustrator 18.0.0, SVG Export Plug-In . SVG Version: 6.00 Build 0)  -->
<!DOCTYPE svg PUBLIC "-//W3C//DTD SVG 1.1//EN" "http://www.w3.org/Graphics/SVG/1.1/DTD/svg11.dtd">
<svg version="1.1" xmlns="http://www.w3.org/2000/svg" xmlns:xlink="http://www.w3.org/1999/xlink" x="0px" y="0px"
	 viewBox="0 0 110 110" enable-background="new 0 0 110 110" xml:space="preserve">
<g id="Capa_1">
	<circle fill="none" cx="55" cy="55" r="55"/>
</g>
<g id="iconos">
	<g>
		<path d="M84.3,73l-10.9,5.1c-1.5-2.8-4.4-4.6-7.6-4.7l-10.1-0.3c-1.6,0-3.2-0.4-4.6-1.2l-1-0.5c-5.2-2.7-11.5-2.7-16.7,0l0.1-2.3
			c0-0.8-0.6-1.4-1.4-1.4l-11-0.3c-0.8,0-1.4,0.6-1.4,1.4L19,93c0,0.8,0.6,1.4,1.4,1.4l11,0.3h0c0.8,0,1.4-0.6,1.4-1.4l0-1.2
			l2.9-1.5c1.1-0.6,2.4-0.7,3.7-0.4l17.1,4.8c0,0,0.1,0,0.1,0c1.2,0.3,2.5,0.4,3.8,0.4c2.7,0,5.3-0.6,7.8-1.7c0.1,0,0.1-0.1,0.2-0.1
			l24.8-16.1c0.6-0.4,0.8-1.2,0.5-1.9C91.7,72.6,87.6,71.3,84.3,73L84.3,73z M21.8,91.7l0.6-21.4l8.3,0.2L30.1,92L21.8,91.7z
			 M66.8,91.4c-3,1.4-6.4,1.7-9.6,1.1l-17.1-4.8c-1.9-0.5-4-0.3-5.7,0.6l-1.5,0.8l0.4-14.2c4.6-3.1,10.6-3.4,15.5-0.8l1,0.5
			c1.8,0.9,3.8,1.4,5.8,1.5l10.1,0.3c2.8,0.1,5.2,2.1,5.8,4.9l-15-0.4c-0.8,0-1.4,0.6-1.4,1.4c0,0.8,0.6,1.4,1.4,1.4L73,84h0
			c0.8,0,1.4-0.6,1.4-1.4c0-0.6,0-1.2-0.1-1.8l11.2-5.3c0,0,0,0,0,0c1.6-0.8,3.5-0.5,4.8,0.7L66.8,91.4z M66.8,91.4"/>
		<g>
			<path d="M56.1,56.3c-0.2,0-0.3,0-0.5,0c-1.7-0.2-3-1.6-3-3.3c0-0.8-0.7-1.5-1.5-1.5c-0.8,0-1.5,0.7-1.5,1.5
				c0,2.9,1.9,5.4,4.7,6.1v1.5c0,0.8,0.7,1.5,1.5,1.5c0.8,0,1.5-0.7,1.5-1.5v-1.4c3.2-0.7,5.3-3.6,5-6.8c-0.3-3.2-3.1-5.7-6.3-5.7
				c-1.9,0-3.4-1.5-3.4-3.4c0-1.9,1.5-3.4,3.4-3.4c1.9,0,3.4,1.5,3.4,3.4c0,0.8,0.7,1.5,1.5,1.5s1.5-0.7,1.5-1.5c0-3-2.1-5.6-5-6.2
				v-1.3c0-0.8-0.7-1.5-1.5-1.5c-0.8,0-1.5,0.7-1.5,1.5v1.4c-3.1,0.8-5,3.8-4.6,6.9c0.4,3.1,3.1,5.5,6.3,5.5c1.8,0,3.3,1.5,3.4,3.3
				C59.4,54.7,57.9,56.3,56.1,56.3L56.1,56.3z M56.1,56.3"/>
			<path d="M34.5,48.2c0,11.9,9.6,21.5,21.5,21.5c11.9,0,21.5-9.6,21.5-21.5c0-11.9-9.6-21.5-21.5-21.5
				C44.1,26.8,34.5,36.4,34.5,48.2L34.5,48.2z M56,29.7c10.2,0,18.5,8.3,18.5,18.5S66.2,66.8,56,66.8c-10.2,0-18.5-8.3-18.5-18.5
				C37.5,38,45.7,29.7,56,29.7L56,29.7z M56,29.7"/>
			<path d="M57.5,22.6V8.5C57.5,7.7,56.8,7,56,7c-0.8,0-1.5,0.7-1.5,1.5v14.1c0,0.8,0.7,1.5,1.5,1.5C56.8,24.1,57.5,23.4,57.5,22.6
				L57.5,22.6z M57.5,22.6"/>
			<path d="M68.6,22.6v-6.7c0-0.8-0.7-1.5-1.5-1.5c-0.8,0-1.5,0.7-1.5,1.5v6.7c0,0.8,0.7,1.5,1.5,1.5C67.9,24.1,68.6,23.4,68.6,22.6
				L68.6,22.6z M68.6,22.6"/>
			<path d="M46.3,22.6v-6.7c0-0.8-0.7-1.5-1.5-1.5c-0.8,0-1.5,0.7-1.5,1.5v6.7c0,0.8,0.7,1.5,1.5,1.5C45.7,24.1,46.3,23.4,46.3,22.6
				L46.3,22.6z M46.3,22.6"/>
		</g>
	</g>
</g>
</svg>
