<?xml version="1.0" encoding="utf-8"?>
<!-- Generator: Adobe Illustrator 18.0.0, SVG Export Plug-In . SVG Version: 6.00 Build 0)  -->
<!DOCTYPE svg PUBLIC "-//W3C//DTD SVG 1.1//EN" "http://www.w3.org/Graphics/SVG/1.1/DTD/svg11.dtd">
<svg version="1.1" id="Layer_1" xmlns="http://www.w3.org/2000/svg" xmlns:xlink="http://www.w3.org/1999/xlink" x="0px" y="0px"
	 viewBox="0 0 623.6 198.4" enable-background="new 0 0 623.6 198.4" xml:space="preserve">
<g>
	<path fill-rule="evenodd" clip-rule="evenodd" d="M471.3,121.7h29.2l7-26.4h4.1l6.7-25.5h-4.1l6.8-26h-29.4L471.3,121.7
		L471.3,121.7z M559.7,69.7h-4.6l-6.7,25.5h4.5l-7,26.4h29l20.4-77.9h-28.8L559.7,69.7z"/>
	<path fill-rule="evenodd" clip-rule="evenodd" fill="#B4282F" d="M508.3,121.7h29.2l20.4-77.9h-29.2L508.3,121.7L508.3,121.7z
		 M558.8,40.1l5.7-21.9h-29.2l-5.7,21.9H558.8z"/>
	<polygon fill-rule="evenodd" clip-rule="evenodd" fill="#B4282F" points="28.3,180.3 560,180.3 570.9,136.1 60,136.1 	"/>
	<path fill="#FFFFFF" d="M300.1,159.8h7.9l-4-9.2L300.1,159.8L300.1,159.8z M291.7,170.6l11-25.4h2.6l11.2,25.4h-3.8l-3.3-7.5h-10.8
		l-3.2,7.5H291.7z"/>
	<path fill="#FFFFFF" d="M342.1,158.1v10.7c-1.7,0.7-3.3,1.3-4.7,1.6c-1.5,0.4-2.9,0.5-4.3,0.5c-1.5,0-3-0.2-4.3-0.6
		c-1.3-0.4-2.6-0.9-3.7-1.7c-1.9-1.2-3.4-2.8-4.4-4.7c-1-1.9-1.6-4-1.6-6.3c0-1.7,0.3-3.4,1-5c0.7-1.6,1.7-3,2.9-4.2
		c1.3-1.3,2.9-2.3,4.5-2.9c1.7-0.6,3.6-0.9,5.6-0.9c1.4,0,2.8,0.2,4.3,0.5c1.4,0.3,2.9,0.8,4.4,1.5v3.9c-1.6-0.9-3.1-1.5-4.5-1.9
		c-1.4-0.4-2.8-0.6-4.1-0.6c-3,0-5.4,0.9-7.4,2.8c-1.9,1.8-2.9,4.2-2.9,6.9c0,2.7,1,5,2.9,6.9c1.9,1.8,4.3,2.8,7.2,2.8
		c0.9,0,1.7-0.1,2.6-0.3c0.9-0.2,1.8-0.5,2.7-0.9v-4.9h-4.8v-3.4H342.1z"/>
	<path fill="#FFFFFF" d="M348.7,170.6v-25.4h7.4c2.6,0,4.5,0.6,5.9,1.8c1.4,1.2,2.1,2.9,2.1,5.1c0,1.7-0.4,3-1.1,4
		c-0.8,1-2,1.8-3.6,2.3c0.4,0.2,0.8,0.5,1.2,0.9c0.4,0.4,0.9,1,1.5,1.9l6.2,9.3h-4.4l-4.4-6.7c-1.3-2-2.4-3.3-3.2-3.8
		c-0.8-0.6-1.8-0.8-2.9-0.8h-1.1v11.4H348.7L348.7,170.6z M352.4,156.2h3c1.7,0,3-0.3,3.8-1c0.8-0.7,1.3-1.7,1.3-3
		c0-1.4-0.4-2.4-1.2-3c-0.8-0.6-2.1-0.9-3.9-0.9h-3V156.2z"/>
	<rect x="371.9" y="145.2" fill="#FFFFFF" width="3.6" height="25.4"/>
	<path fill="#FFFFFF" d="M404.7,164.6v4.1c-1.5,0.8-3,1.4-4.6,1.8c-1.5,0.4-3.1,0.6-4.6,0.6c-1.5,0-2.8-0.2-4.2-0.6
		c-1.3-0.4-2.6-0.9-3.7-1.7c-1.9-1.2-3.4-2.8-4.4-4.7c-1-1.9-1.6-4-1.6-6.3c0-1.7,0.3-3.4,1-5c0.7-1.6,1.7-3,2.9-4.2
		c1.4-1.3,2.9-2.2,4.6-2.9c1.7-0.6,3.5-1,5.6-1c1.4,0,2.8,0.2,4.3,0.5c1.4,0.3,2.9,0.8,4.4,1.5v3.9c-1.6-0.9-3.1-1.5-4.5-1.9
		c-1.4-0.4-2.8-0.6-4.1-0.6c-3,0-5.4,0.9-7.4,2.8c-1.9,1.8-2.9,4.2-2.9,6.9c0,2.7,1,5,2.9,6.9c1.9,1.8,4.3,2.8,7.2,2.8
		c1.5,0,3-0.2,4.5-0.7S403.1,165.6,404.7,164.6z"/>
	<path fill="#FFFFFF" d="M410.7,145.2h3.6v14.6c0,1.6,0.1,2.8,0.3,3.5c0.2,0.7,0.5,1.3,0.9,1.8c0.8,0.9,1.6,1.5,2.7,2
		c1,0.4,2.2,0.7,3.5,0.7c2.2,0,4-0.6,5.3-1.7c1.3-1.1,2-2.6,2-4.5v-16.2h3.6v16.3c0,2.8-1,5.1-3,6.9c-2,1.8-4.7,2.6-7.9,2.6
		c-1.9,0-3.7-0.3-5.2-1c-1.5-0.7-2.9-1.7-3.9-3c-0.7-0.8-1.1-1.7-1.4-2.6c-0.3-1-0.4-2.5-0.4-4.5V145.2z"/>
	<polygon fill="#FFFFFF" points="440,170.6 440,145.2 443.6,145.2 443.6,167.3 455.7,167.3 455.7,170.6 	"/>
	<polygon fill="#FFFFFF" points="465.5,170.6 465.5,148.5 456.1,148.5 456.1,145.2 478.4,145.2 478.4,148.5 469.1,148.5 
		469.1,170.6 	"/>
	<path fill="#FFFFFF" d="M483.2,145.2h3.6v14.6c0,1.6,0.1,2.8,0.3,3.5c0.2,0.7,0.5,1.3,0.9,1.8c0.8,0.9,1.6,1.5,2.7,2
		c1,0.4,2.2,0.7,3.5,0.7c2.2,0,4-0.6,5.3-1.7c1.3-1.1,2-2.6,2-4.5v-16.2h3.6v16.3c0,2.8-1,5.1-3,6.9c-2,1.8-4.7,2.6-7.9,2.6
		c-1.9,0-3.7-0.3-5.2-1c-1.5-0.7-2.9-1.7-3.9-3c-0.7-0.8-1.1-1.7-1.4-2.6c-0.3-1-0.4-2.5-0.4-4.5V145.2z"/>
	<path fill="#FFFFFF" d="M512.3,170.6v-25.4h7.4c2.6,0,4.5,0.6,5.9,1.8c1.4,1.2,2.1,2.9,2.1,5.1c0,1.7-0.4,3-1.1,4
		c-0.8,1-2,1.8-3.6,2.3c0.4,0.2,0.8,0.5,1.2,0.9c0.4,0.4,0.9,1,1.5,1.9l6.2,9.3h-4.4l-4.4-6.7c-1.3-2-2.4-3.3-3.2-3.8
		c-0.8-0.6-1.8-0.8-2.9-0.8H516v11.4H512.3L512.3,170.6z M516,156.2h3c1.7,0,3-0.3,3.8-1c0.8-0.7,1.3-1.7,1.3-3c0-1.4-0.4-2.4-1.2-3
		c-0.8-0.6-2.1-0.9-3.9-0.9h-3V156.2z"/>
	<polygon fill="#FFFFFF" points="535.4,170.6 535.4,145.2 550.7,145.2 550.7,148.4 539,148.4 539,156.1 550.3,156.1 550.3,159.4 
		539,159.4 539,167.3 551,167.3 551,170.6 	"/>
	<g>
		<polygon fill-rule="evenodd" clip-rule="evenodd" points="355.5,121.7 437.1,121.7 442.3,101.3 390.3,101.3 392.9,91.2 
			442.6,91.2 446.9,74.3 397.3,74.3 399.9,64.2 451.8,64.2 457.1,43.9 375.6,43.9 		"/>
		<path fill-rule="evenodd" clip-rule="evenodd" d="M260.1,121.7h-32.9l-0.6-9.3H194l-5.9,9.3h-34.5l57.2-77.8h2.6h31.9h1.1
			L260.1,121.7L260.1,121.7z M225.4,96.3l-2.1-30.1l-19.1,30.1H225.4z"/>
		<path fill-rule="evenodd" clip-rule="evenodd" d="M313.3,59.5c10.2-0.4,15.4,3.4,16,9.4l29.9,0c0.2-15.1-7.7-27.7-45.6-27.7
			c-25.4,0.2-41.7,13.5-41.9,25.8c-0.3,6.8,1.7,15.1,17.1,19.9c4.6,1.5,19,6.3,25.5,7.8c4.3,0.9,7.9,1.7,8.2,5.2
			c-0.5,4.6-6.1,5.5-12.5,5.8c-14.7-0.1-16.1-6.2-17-11.2l-30.5-0.2c0.3,16.2,8.2,29.3,44.1,29.2c30.4-0.1,47.8-11.6,47.8-30
			c-0.1-11.7-7.6-14.3-27.7-19c-7.4-1.9-22.9-3.3-23-8.8C303.1,61.5,307.1,59.8,313.3,59.5z"/>
		<path fill-rule="evenodd" clip-rule="evenodd" d="M138.2,78.3c1.1-8-2.9-14.4-8.5-14.9c-11.9-1-19.5,4.7-24.8,12.7
			c-6.1,9.2-5.7,25.6,11.7,26.3c7.1,0.3,14.1-4.7,17.3-9.5h30.2c-4.7,13-9.4,20-28.8,27.9c-6,2.4-16,2.5-26,2.6
			c-9.3,0-18.6-2.7-26-7.4c-12.1-7.6-18.9-26.8-7.4-47.3c12.8-22.9,33.7-27.5,53.8-27.5c18-0.1,30.3,7,34.3,13.5
			c3.7,5.9,4.7,15.2,3.7,23.7H138.2z"/>
	</g>
</g>
</svg>
