<?xml version="1.0" encoding="utf-8"?>
<!-- Generator: Adobe Illustrator 18.0.0, SVG Export Plug-In . SVG Version: 6.00 Build 0)  -->
<!DOCTYPE svg PUBLIC "-//W3C//DTD SVG 1.1//EN" "http://www.w3.org/Graphics/SVG/1.1/DTD/svg11.dtd">
<svg version="1.1" id="Layer_1" xmlns="http://www.w3.org/2000/svg" xmlns:xlink="http://www.w3.org/1999/xlink" x="0px" y="0px"
	 viewBox="0 0 530 187" enable-background="new 0 0 530 187" xml:space="preserve">
<g>
	<g>
		<path fill="#FFFFFF" d="M111.4,51.7c-13.3,0-24.1,10.8-24.1,24.1h0v56.3h0c0,13.3,10.8,24.1,24.1,24.1c13.3,0,24.1-10.8,24.1-24.1
			v-12.5h-16.1v12.5c0,4.4-3.6,8-8,8c-4.4,0-8-3.6-8-8h0v-20.1h32.2V96V75.9v0C135.6,62.5,124.8,51.7,111.4,51.7z M119.5,75.9V96
			h-16.1V75.9h0c0-4.4,3.6-8,8-8C115.9,67.8,119.5,71.4,119.5,75.9L119.5,75.9z"/>
		<path fill="#FFFFFF" d="M79.3,75.9c0-13.3-10.8-24.1-24.1-24.1S31,62.5,31,75.9c0,5,1.5,9.7,4.2,13.6l26.7,38.3
			c0.8,1.3,1.3,2.8,1.3,4.4h0c0,4.4-3.6,8-8,8c-4.4,0-8-3.6-8-8v-12.5H31v12.5c0,13.3,10.8,24.1,24.1,24.1
			c13.3,0,24.1-10.8,24.1-24.1v0v0c0-5-1.5-9.7-4.2-13.6L48.4,80.3c-0.8-1.3-1.3-2.8-1.3-4.4c0-4.4,3.6-8,8-8c4.4,0,8,3.6,8,8l0,0
			v12.5h16.1V75.9L79.3,75.9z"/>
		<path fill="#FFFFFF" d="M199.9,51.7c-6.2,0-11.8,2.3-16.1,6.1c-4.3-3.8-9.9-6.1-16.1-6.1c-13.3,0-24.1,10.8-24.1,24.1h0v80.4h16.1
			V75.9h0c0-4.4,3.6-8,8-8c4.4,0,8,3.6,8,8v0h0v80.4h16.1V75.9h0c0-4.4,3.6-8,8-8c4.4,0,8,3.6,8,8v80.4H224V75.9h0
			C224,62.5,213.2,51.7,199.9,51.7z"/>
		<path fill="#FFFFFF" d="M505.6,132.2V75.9l0,0c0-13.3-10.8-24.1-24.1-24.1c-13.3,0-24.1,10.8-24.1,24.1h0v56.3
			c0,13.3,10.8,24.1,24.1,24.1C494.7,156.3,505.6,145.5,505.6,132.2L505.6,132.2z M481.4,140.2c-4.4,0-8-3.6-8-8h0V75.9
			c0-4.4,3.6-8,8-8c4.4,0,8,3.6,8,8h0v56.3l0,0C489.5,136.6,485.9,140.2,481.4,140.2z"/>
		<path fill="#FFFFFF" d="M449.2,88.4V75.9h0c0-13.3-10.8-24.1-24.1-24.1c-13.3,0-24.1,10.8-24.1,24.1v56.3l0,0
			c0,13.3,10.8,24.1,24.1,24.1c13.3,0,24.1-10.8,24.1-24.1h0v-12.5h-16.1v12.5c0,4.4-3.6,8-8,8c-4.4,0-8-3.6-8-8l0,0V75.9
			c0-4.4,3.6-8,8-8c4.4,0,8,3.6,8,8l0,0v12.5H449.2z"/>
		<path fill="#FFFFFF" d="M368.8,51.7c-13.3,0-24.1,10.8-24.1,24.1l0,0v12.5h16.1V75.9c0-4.4,3.6-8,8-8c4.4,0,8,3.6,8,8h0V96h-8v0
			c-13.3,0-24.1,10.8-24.1,24.1l0,0v36.2h16.1v-36.2c0-4.4,3.6-8,8-8v0h8v44.2h16.1v-44.2l0,0V96l0,0V75.9l0,0
			C392.9,62.5,382.1,51.7,368.8,51.7z"/>
		<path fill="#FFFFFF" d="M336.6,75.9L336.6,75.9c0-13.3-10.8-24.1-24.1-24.1c-13.3,0-24.1,10.8-24.1,24.1l0,0v80.4h16.1V75.9h0
			c0-4.4,3.6-8,8-8c4.4,0,8,3.6,8,8l0,12.5h16.1L336.6,75.9z"/>
		<path fill="#FFFFFF" d="M280.3,96h-16.1v36.2c0,4.4-3.6,8-8,8c-4.4,0-8-3.6-8-8h0V67.8h32.2V51.7h-32.2V27.6h-16.1v24.1v16.1v64.3
			h0c0,13.3,10.8,24.1,24.1,24.1c13.3,0,24.1-10.8,24.1-24.1l0,0V96z"/>
	</g>
</g>
</svg>
